<svg width="122" height="24" viewBox="0 0 122 24" fill="none" xmlns="http://www.w3.org/2000/svg">
<path d="M103.095 19V7.50062H105.325L105.544 9.03095H105.697C105.945 8.68116 106.229 8.37509 106.55 8.11275C106.87 7.83583 107.235 7.6245 107.643 7.47875C108.065 7.31843 108.524 7.23827 109.02 7.23827C109.69 7.23827 110.288 7.37673 110.813 7.65365C111.337 7.93057 111.745 8.38967 112.037 9.03095H112.19C112.438 8.68116 112.729 8.37509 113.064 8.11275C113.4 7.83583 113.786 7.6245 114.223 7.47875C114.66 7.31843 115.134 7.23827 115.644 7.23827C116.329 7.23827 116.934 7.36216 117.459 7.60993C117.983 7.85769 118.399 8.26578 118.705 8.83419C119.011 9.4026 119.164 10.1605 119.164 11.1078V19H116.497V11.6544C116.497 11.2609 116.453 10.9329 116.366 10.6706C116.278 10.3937 116.154 10.1823 115.994 10.0366C115.848 9.87628 115.659 9.75968 115.426 9.68681C115.207 9.61394 114.966 9.5775 114.704 9.5775C114.281 9.5775 113.903 9.6941 113.567 9.92729C113.232 10.1605 112.962 10.4811 112.758 10.8892C112.569 11.2973 112.474 11.771 112.474 12.3102V19H109.807V11.6544C109.807 11.2609 109.763 10.9329 109.676 10.6706C109.588 10.3937 109.465 10.1823 109.304 10.0366C109.158 9.87628 108.969 9.75968 108.736 9.68681C108.517 9.61394 108.277 9.5775 108.014 9.5775C107.592 9.5775 107.205 9.6941 106.856 9.92729C106.52 10.1605 106.251 10.4811 106.047 10.8892C105.857 11.2973 105.763 11.771 105.763 12.3102V19H103.095Z" fill="#131313"/>
<path d="M95.8579 19V7.50062H98.0878L98.3065 9.31516H98.4595C98.6052 8.95079 98.7801 8.61558 98.9842 8.30951C99.2028 7.98887 99.4797 7.73381 99.8149 7.54434C100.15 7.34029 100.558 7.23827 101.039 7.23827C101.272 7.23827 101.484 7.26013 101.673 7.30386C101.877 7.34758 102.03 7.39131 102.132 7.43503V9.94915H101.323C100.872 9.94915 100.471 10.0147 100.121 10.1459C99.7712 10.2625 99.4724 10.452 99.2247 10.7143C98.9915 10.9767 98.8166 11.3046 98.7 11.6981C98.5834 12.0916 98.5251 12.5507 98.5251 13.0754V19H95.8579Z" fill="#131313"/>
<path d="M87.3446 19.2623C87.0239 19.2623 86.6523 19.2186 86.2296 19.1312C85.8215 19.0583 85.4207 18.9126 85.0272 18.6939C84.6483 18.4753 84.3349 18.1547 84.0871 17.732C83.8394 17.2948 83.7155 16.7264 83.7155 16.0268C83.7155 15.2397 83.8904 14.5912 84.2402 14.0811C84.59 13.5564 85.0782 13.1483 85.7049 12.8568C86.3462 12.5507 87.1041 12.3394 87.9786 12.2228C88.8676 12.0916 89.8368 12.026 90.8862 12.026V11.086C90.8862 10.7508 90.8352 10.452 90.7332 10.1896C90.6312 9.92729 90.4417 9.72325 90.1648 9.5775C89.9024 9.41718 89.5016 9.33702 88.9624 9.33702C88.4231 9.33702 88.0004 9.4026 87.6944 9.53378C87.3883 9.66495 87.177 9.82527 87.0604 10.0147C86.9438 10.2042 86.8855 10.401 86.8855 10.605V10.9111H84.3058C84.2912 10.8382 84.2839 10.7653 84.2839 10.6925C84.2839 10.6196 84.2839 10.5321 84.2839 10.4301C84.2839 9.77426 84.4807 9.20585 84.8742 8.72488C85.2677 8.24392 85.8142 7.87956 86.5138 7.63179C87.2134 7.36944 88.0223 7.23827 88.9405 7.23827C89.9899 7.23827 90.8498 7.38402 91.5202 7.67551C92.2052 7.967 92.7153 8.38238 93.0505 8.92164C93.3858 9.4609 93.5534 10.1168 93.5534 10.8892V16.311C93.5534 16.5879 93.6335 16.7847 93.7938 16.9013C93.9542 17.0179 94.1291 17.0761 94.3185 17.0761H95.0181V18.9126C94.8724 18.9709 94.661 19.0364 94.3841 19.1093C94.1072 19.1968 93.7647 19.2405 93.3566 19.2405C92.9777 19.2405 92.6352 19.1749 92.3291 19.0437C92.0376 18.9271 91.7898 18.7522 91.5858 18.519C91.3817 18.2858 91.236 18.0089 91.1486 17.6883H91.0174C90.7696 17.9944 90.4708 18.2713 90.121 18.519C89.7858 18.7522 89.385 18.9344 88.9186 19.0656C88.4668 19.1968 87.9421 19.2623 87.3446 19.2623ZM88.1535 17.0761C88.5907 17.0761 88.9769 17.0106 89.3121 16.8794C89.6619 16.7482 89.9461 16.566 90.1648 16.3328C90.398 16.0996 90.5729 15.8154 90.6895 15.4802C90.8206 15.145 90.8862 14.7806 90.8862 14.3871V13.8624C90.0846 13.8624 89.3413 13.9135 88.6563 14.0155C87.9859 14.1175 87.4466 14.307 87.0385 14.5839C86.645 14.8608 86.4482 15.2543 86.4482 15.7644C86.4482 16.0268 86.5065 16.26 86.6231 16.464C86.7543 16.6535 86.9438 16.8065 87.1915 16.9231C87.4539 17.0251 87.7745 17.0761 88.1535 17.0761Z" fill="#131313"/>
<path d="M72.6566 19V4.0027H83.4345V6.42938H75.4986V10.452H82.6475V12.8787H75.4986V19H72.6566Z" fill="#131313"/>
<path d="M65.7854 19.2623C64.5612 19.2623 63.541 19.051 62.7248 18.6283C61.9086 18.1911 61.2965 17.528 60.8884 16.6389C60.4803 15.7499 60.2762 14.6203 60.2762 13.2503C60.2762 11.8657 60.4803 10.7362 60.8884 9.86171C61.2965 8.97265 61.9086 8.3168 62.7248 7.89413C63.541 7.45689 64.5612 7.23827 65.7854 7.23827C66.8931 7.23827 67.8186 7.4496 68.5619 7.87227C69.3198 8.28036 69.8882 8.91436 70.2672 9.77426C70.6461 10.6342 70.8356 11.7491 70.8356 13.1191V13.9062H63.009C63.0381 14.6203 63.1474 15.2252 63.3369 15.7207C63.5264 16.2017 63.8179 16.566 64.2114 16.8138C64.6195 17.047 65.1515 17.1636 65.8073 17.1636C66.1425 17.1636 66.4559 17.1199 66.7474 17.0324C67.0389 16.945 67.2939 16.8138 67.5125 16.6389C67.7312 16.4494 67.8988 16.2162 68.0154 15.9393C68.1465 15.6624 68.2121 15.3418 68.2121 14.9774H70.8356C70.8356 15.7061 70.7044 16.3401 70.442 16.8794C70.1943 17.4187 69.8372 17.8632 69.3708 18.213C68.919 18.5628 68.387 18.8251 67.7749 19C67.1628 19.1749 66.4996 19.2623 65.7854 19.2623ZM63.0527 12.026H68.0591C68.0591 11.5451 68.0008 11.137 67.8842 10.8018C67.7822 10.4666 67.6291 10.1896 67.4251 9.97102C67.2356 9.7524 67.0024 9.59936 66.7255 9.51192C66.4486 9.40989 66.1352 9.35888 65.7854 9.35888C65.217 9.35888 64.7361 9.45362 64.3426 9.64309C63.9636 9.83256 63.6721 10.124 63.4681 10.5176C63.264 10.9111 63.1256 11.4139 63.0527 12.026Z" fill="#131313"/>
<path d="M50.5133 22.9789C50.0032 22.9789 49.5223 22.8769 49.0705 22.6728C48.6186 22.4688 48.2543 22.1627 47.9774 21.7546C47.7004 21.3611 47.562 20.8728 47.562 20.2899C47.562 19.6486 47.7442 19.1457 48.1085 18.7814C48.4875 18.4024 48.9028 18.1182 49.3547 17.9288C49.0194 17.7539 48.7425 17.5207 48.5239 17.2292C48.3199 16.9377 48.2178 16.5879 48.2178 16.1798C48.2178 15.626 48.4219 15.1887 48.83 14.8681C49.2381 14.5329 49.7045 14.3143 50.2291 14.2122C49.6899 13.877 49.2745 13.4471 48.983 12.9224C48.7061 12.3977 48.5676 11.8001 48.5676 11.1297C48.5676 10.3281 48.7571 9.64309 49.136 9.07468C49.5296 8.49169 50.098 8.03988 50.8413 7.71923C51.5846 7.39859 52.4809 7.23827 53.5303 7.23827C53.953 7.23827 54.361 7.26742 54.7546 7.32572C55.1481 7.38402 55.5052 7.47147 55.8258 7.58806C56.3359 7.282 56.6857 6.93949 56.8752 6.56055C57.0646 6.16704 57.1667 5.8464 57.1812 5.59863H59.7828C59.7828 6.10874 59.6808 6.56055 59.4767 6.95407C59.2873 7.34758 59.0176 7.67551 58.6679 7.93785C58.3181 8.18562 57.8954 8.36781 57.3999 8.4844C57.7642 8.80505 58.0411 9.19127 58.2306 9.64309C58.4201 10.0949 58.5148 10.5904 58.5148 11.1297C58.5148 11.9313 58.3253 12.6236 57.9464 13.2066C57.582 13.7896 57.0355 14.2414 56.3068 14.562C55.5926 14.8827 54.7108 15.043 53.6615 15.043H51.8906C51.5846 15.043 51.3441 15.1086 51.1692 15.2397C51.0089 15.3709 50.9287 15.5531 50.9287 15.7863C50.9287 15.9758 51.0016 16.1434 51.1473 16.2891C51.3077 16.4349 51.5263 16.5077 51.8032 16.5077H56.8314C57.6913 16.5077 58.3982 16.7919 58.9521 17.3604C59.5205 17.9142 59.8047 18.6283 59.8047 19.5028C59.8047 20.1587 59.6298 20.749 59.28 21.2736C58.9448 21.7983 58.4711 22.2137 57.859 22.5198C57.2468 22.8258 56.5327 22.9789 55.7165 22.9789H50.5133ZM51.4753 21.055H55.6946C55.9715 21.055 56.212 21.004 56.4161 20.902C56.6347 20.8145 56.8023 20.6834 56.9189 20.5085C57.0501 20.3336 57.1157 20.1368 57.1157 19.9182C57.1157 19.5393 56.9918 19.2551 56.744 19.0656C56.5108 18.8761 56.2193 18.7814 55.8695 18.7814H51.4753C51.1255 18.7814 50.834 18.8834 50.6008 19.0874C50.3676 19.3061 50.251 19.583 50.251 19.9182C50.251 20.2534 50.3603 20.5231 50.5789 20.7271C50.8121 20.9457 51.1109 21.055 51.4753 21.055ZM53.5522 13.1629C54.3246 13.1629 54.9003 12.988 55.2792 12.6382C55.6728 12.2738 55.8695 11.771 55.8695 11.1297C55.8695 10.4884 55.6728 9.99288 55.2792 9.64309C54.9003 9.2933 54.3246 9.1184 53.5522 9.1184C52.7797 9.1184 52.1967 9.2933 51.8032 9.64309C51.4243 9.99288 51.2348 10.4884 51.2348 11.1297C51.2348 11.5524 51.3149 11.9167 51.4753 12.2228C51.6502 12.5289 51.9052 12.7621 52.2404 12.9224C52.5902 13.0827 53.0275 13.1629 53.5522 13.1629Z" fill="#131313"/>
<path d="M36.5275 19V7.50062H38.7574L38.976 9.03095H39.1291C39.3914 8.68116 39.6975 8.37509 40.0473 8.11275C40.4116 7.83583 40.8197 7.6245 41.2715 7.47875C41.7379 7.31843 42.248 7.23827 42.8019 7.23827C43.5306 7.23827 44.1719 7.36944 44.7257 7.63179C45.2941 7.89413 45.7387 8.31679 46.0593 8.89978C46.38 9.48277 46.5403 10.2625 46.5403 11.239V19H43.8513V11.72C43.8513 11.3119 43.8002 10.9767 43.6982 10.7143C43.6108 10.4374 43.4723 10.2188 43.2828 10.0585C43.1079 9.88357 42.8893 9.75968 42.627 9.68681C42.3646 9.61394 42.0731 9.5775 41.7525 9.5775C41.2715 9.5775 40.8343 9.6941 40.4408 9.92729C40.0619 10.1605 39.7558 10.4811 39.5226 10.8892C39.304 11.2973 39.1947 11.771 39.1947 12.3102V19H36.5275Z" fill="#131313"/>
<path d="M28.0142 19.2623C27.6935 19.2623 27.3219 19.2186 26.8992 19.1312C26.4911 19.0583 26.0903 18.9126 25.6968 18.6939C25.3178 18.4753 25.0045 18.1547 24.7567 17.732C24.509 17.2948 24.3851 16.7264 24.3851 16.0268C24.3851 15.2397 24.56 14.5912 24.9098 14.0811C25.2595 13.5564 25.7478 13.1483 26.3745 12.8568C27.0158 12.5507 27.7737 12.3394 28.6481 12.2228C29.5372 12.0916 30.5064 12.026 31.5558 12.026V11.086C31.5558 10.7508 31.5048 10.452 31.4028 10.1896C31.3007 9.92729 31.1113 9.72325 30.8343 9.5775C30.572 9.41718 30.1712 9.33702 29.6319 9.33702C29.0927 9.33702 28.67 9.4026 28.3639 9.53378C28.0579 9.66495 27.8465 9.82527 27.7299 10.0147C27.6134 10.2042 27.5551 10.401 27.5551 10.605V10.9111H24.9753C24.9608 10.8382 24.9535 10.7653 24.9535 10.6925C24.9535 10.6196 24.9535 10.5321 24.9535 10.4301C24.9535 9.77426 25.1502 9.20585 25.5438 8.72488C25.9373 8.24392 26.4838 7.87956 27.1834 7.63179C27.883 7.36944 28.6919 7.23827 29.6101 7.23827C30.6594 7.23827 31.5194 7.38402 32.1898 7.67551C32.8748 7.967 33.3849 8.38238 33.7201 8.92164C34.0553 9.4609 34.2229 10.1168 34.2229 10.8892V16.311C34.2229 16.5879 34.3031 16.7847 34.4634 16.9013C34.6237 17.0179 34.7986 17.0761 34.9881 17.0761H35.6877V18.9126C35.5419 18.9709 35.3306 19.0364 35.0537 19.1093C34.7768 19.1968 34.4343 19.2405 34.0262 19.2405C33.6472 19.2405 33.3047 19.1749 32.9987 19.0437C32.7072 18.9271 32.4594 18.7522 32.2554 18.519C32.0513 18.2858 31.9056 18.0089 31.8181 17.6883H31.687C31.4392 17.9944 31.1404 18.2713 30.7906 18.519C30.4554 18.7522 30.0546 18.9344 29.5882 19.0656C29.1364 19.1968 28.6117 19.2623 28.0142 19.2623ZM28.823 17.0761C29.2603 17.0761 29.6465 17.0106 29.9817 16.8794C30.3315 16.7482 30.6157 16.566 30.8343 16.3328C31.0675 16.0996 31.2424 15.8154 31.359 15.4802C31.4902 15.145 31.5558 14.7806 31.5558 14.3871V13.8624C30.7542 13.8624 30.0109 13.9135 29.3259 14.0155C28.6554 14.1175 28.1162 14.307 27.7081 14.5839C27.3146 14.8608 27.1178 15.2543 27.1178 15.7644C27.1178 16.0268 27.1761 16.26 27.2927 16.464C27.4239 16.6535 27.6134 16.8065 27.8611 16.9231C28.1235 17.0251 28.4441 17.0761 28.823 17.0761Z" fill="#131313"/>
<path d="M18.0388 19V7.50062H20.2687L20.4873 9.31516H20.6404C20.7861 8.95079 20.961 8.61558 21.165 8.30951C21.3837 7.98887 21.6606 7.73381 21.9958 7.54434C22.331 7.34029 22.7391 7.23827 23.2201 7.23827C23.4533 7.23827 23.6646 7.26013 23.8541 7.30386C24.0581 7.34758 24.2111 7.39131 24.3132 7.43503V9.94915H23.5043C23.0525 9.94915 22.6517 10.0147 22.3019 10.1459C21.9521 10.2625 21.6533 10.452 21.4055 10.7143C21.1723 10.9767 20.9974 11.3046 20.8808 11.6981C20.7642 12.0916 20.7059 12.5507 20.7059 13.0754V19H18.0388Z" fill="#131313"/>
<path d="M8.74797 19.2623C7.18849 19.2623 5.84033 18.9854 4.70351 18.4316C3.56669 17.8632 2.69221 17.0033 2.08008 15.8519C1.48252 14.7005 1.18374 13.2503 1.18374 11.5014C1.18374 9.73782 1.48252 8.28765 2.08008 7.15082C2.69221 5.99943 3.56669 5.14681 4.70351 4.59298C5.84033 4.02457 7.18849 3.74036 8.74797 3.74036C10.322 3.74036 11.6702 4.02457 12.7924 4.59298C13.9293 5.14681 14.7964 5.99943 15.394 7.15082C16.0061 8.28765 16.3122 9.73782 16.3122 11.5014C16.3122 13.2503 16.0061 14.7005 15.394 15.8519C14.7964 17.0033 13.9293 17.8632 12.7924 18.4316C11.6702 18.9854 10.322 19.2623 8.74797 19.2623ZM8.74797 16.8575C9.50585 16.8575 10.169 16.7482 10.7374 16.5296C11.3204 16.311 11.8086 15.9903 12.2022 15.5677C12.5957 15.1304 12.8945 14.5985 13.0985 13.9718C13.3025 13.3305 13.4046 12.5944 13.4046 11.7637V11.2827C13.4046 10.4374 13.3025 9.6941 13.0985 9.05281C12.8945 8.41153 12.5957 7.87956 12.2022 7.45689C11.8086 7.01965 11.3204 6.69172 10.7374 6.4731C10.169 6.25449 9.50585 6.14518 8.74797 6.14518C7.99009 6.14518 7.31966 6.25449 6.73667 6.4731C6.16826 6.69172 5.6873 7.01965 5.29378 7.45689C4.90027 7.87956 4.60149 8.41153 4.39744 9.05281C4.20797 9.6941 4.11324 10.4374 4.11324 11.2827V11.7637C4.11324 12.5944 4.20797 13.3305 4.39744 13.9718C4.60149 14.5985 4.90027 15.1304 5.29378 15.5677C5.6873 15.9903 6.16826 16.311 6.73667 16.5296C7.31966 16.7482 7.99009 16.8575 8.74797 16.8575Z" fill="#131313"/>
</svg>
