<svg width="16" height="16" viewBox="0 0 16 16" fill="none" xmlns="http://www.w3.org/2000/svg">
<path d="M2.66667 4C2.66667 5.10467 5.05467 6 8.00001 6C10.9453 6 13.3333 5.10467 13.3333 4M2.66667 4C2.66667 2.89533 5.05467 2 8.00001 2C10.9453 2 13.3333 2.89533 13.3333 4M2.66667 4V8M13.3333 4V8M2.66667 8C2.66667 9.10467 5.05467 10 8.00001 10C8.74534 10 9.45534 9.94267 10.1 9.83933M2.66667 8V12C2.66667 13.1047 5.05467 14 8.00001 14C8.10467 14 8.208 13.9987 8.31067 13.9967M10.6667 12.6667H14.6667M14.6667 12.6667L12.6667 10.6667M14.6667 12.6667L12.6667 14.6667" stroke="#7D7D7D" stroke-width="1.25" stroke-linecap="round" stroke-linejoin="round"/>
</svg>
