<svg width="16" height="16" viewBox="0 0 16 16" fill="none" xmlns="http://www.w3.org/2000/svg">
<path d="M5.99998 3.33333H4.66665C4.31302 3.33333 3.97389 3.47381 3.72384 3.72386C3.47379 3.97391 3.33331 4.31304 3.33331 4.66667V12.6667C3.33331 13.0203 3.47379 13.3594 3.72384 13.6095C3.97389 13.8595 4.31302 14 4.66665 14H11.3333C11.6869 14 12.0261 13.8595 12.2761 13.6095C12.5262 13.3594 12.6666 13.0203 12.6666 12.6667V4.66667C12.6666 4.31304 12.5262 3.97391 12.2761 3.72386C12.0261 3.47381 11.6869 3.33333 11.3333 3.33333H9.99998M5.99998 3.33333C5.99998 2.97971 6.14046 2.64057 6.3905 2.39052C6.64055 2.14048 6.97969 2 7.33331 2H8.66665C9.02027 2 9.35941 2.14048 9.60945 2.39052C9.8595 2.64057 9.99998 2.97971 9.99998 3.33333M5.99998 3.33333C5.99998 3.68696 6.14046 4.02609 6.3905 4.27614C6.64055 4.52619 6.97969 4.66667 7.33331 4.66667H8.66665C9.02027 4.66667 9.35941 4.52619 9.60945 4.27614C9.8595 4.02609 9.99998 3.68696 9.99998 3.33333M5.99998 11.3333V8.66667M7.99998 11.3333V10.6667M9.99998 11.3333V10" stroke="#7D7D7D" stroke-width="1.25" stroke-linecap="round" stroke-linejoin="round"/>
</svg>
