<svg width="16" height="16" viewBox="0 0 16 16" fill="none" xmlns="http://www.w3.org/2000/svg">
<path d="M6.66669 2.66669L9.33335 13.3334M8.00002 8.00002L2.66669 9.33335M2.66669 4.00002C2.66669 3.6464 2.80716 3.30726 3.05721 3.05721C3.30726 2.80716 3.6464 2.66669 4.00002 2.66669H12C12.3536 2.66669 12.6928 2.80716 12.9428 3.05721C13.1929 3.30726 13.3334 3.6464 13.3334 4.00002V12C13.3334 12.3536 13.1929 12.6928 12.9428 12.9428C12.6928 13.1929 12.3536 13.3334 12 13.3334H4.00002C3.6464 13.3334 3.30726 13.1929 3.05721 12.9428C2.80716 12.6928 2.66669 12.3536 2.66669 12V4.00002Z" stroke="#FFA500" stroke-width="1.25" stroke-linecap="round" stroke-linejoin="round"/>
</svg>
