<svg width="16" height="16" viewBox="0 0 16 16" fill="none" xmlns="http://www.w3.org/2000/svg">
<path d="M2.66669 4C2.66669 5.10467 5.05469 6 8.00002 6C10.9454 6 13.3334 5.10467 13.3334 4M2.66669 4C2.66669 2.89533 5.05469 2 8.00002 2C10.9454 2 13.3334 2.89533 13.3334 4M2.66669 4V8M13.3334 4V8M2.66669 8C2.66669 9.10467 5.05469 10 8.00002 10C8.74535 10 9.45535 9.94267 10.1 9.83933M2.66669 8V12C2.66669 13.1047 5.05469 14 8.00002 14C8.10469 14 8.20802 13.9987 8.31069 13.9967M10.6667 12.6667H14.6667M14.6667 12.6667L12.6667 10.6667M14.6667 12.6667L12.6667 14.6667" stroke="#7D7D7D" stroke-width="1.25" stroke-linecap="round" stroke-linejoin="round"/>
</svg>
