<svg width="16" height="16" viewBox="0 0 16 16" fill="none" xmlns="http://www.w3.org/2000/svg">
<path d="M11.3333 6.66669L10 2.66669M4.66667 6.66669L6 2.66669M7.33331 13.3334H4.82931C4.35158 13.3333 3.88963 13.1623 3.52707 12.8512C3.1645 12.5401 2.92526 12.1095 2.85265 11.6374L2.01598 6.86935C1.98676 6.67934 1.99897 6.48526 2.05178 6.30041C2.1046 6.11556 2.19676 5.94432 2.32194 5.79842C2.44713 5.65253 2.60239 5.53543 2.77708 5.45515C2.95176 5.37488 3.14174 5.33333 3.33398 5.33335H12.6666C12.8589 5.33333 13.0489 5.37488 13.2236 5.45515C13.3982 5.53543 13.5535 5.65253 13.6787 5.79842C13.8039 5.94432 13.896 6.11556 13.9488 6.30041C14.0017 6.48526 14.0139 6.67934 13.9846 6.86935L13.6653 8.68869M10 12.6667L11.3333 14L14 11.3334M6.66667 9.33335C6.66667 9.68698 6.80714 10.0261 7.05719 10.2762C7.30724 10.5262 7.64638 10.6667 8 10.6667C8.35362 10.6667 8.69276 10.5262 8.94281 10.2762C9.19286 10.0261 9.33333 9.68698 9.33333 9.33335C9.33333 8.97973 9.19286 8.64059 8.94281 8.39054C8.69276 8.1405 8.35362 8.00002 8 8.00002C7.64638 8.00002 7.30724 8.1405 7.05719 8.39054C6.80714 8.64059 6.66667 8.97973 6.66667 9.33335Z" stroke="#7D7D7D" stroke-width="1.25" stroke-linecap="round" stroke-linejoin="round"/>
</svg>
